<?xml version="1.0" encoding="UTF-8"?>
<svg width="23px" height="13px" viewBox="0 0 23 13" version="1.1" xmlns="http://www.w3.org/2000/svg" xmlns:xlink="http://www.w3.org/1999/xlink">
    <g id="create-your-account" transform="translate(-892.000000, -689.000000)" fill="#000000" fill-rule="nonzero">
        <path d="M909.109191,696.749558 L899.100784,706.74686 C898.762735,707.084235 898.209749,707.084525 897.871989,706.74686 L897.253826,706.12911 C896.915777,705.791446 896.915777,705.239088 897.253826,704.901713 L906.666168,695.499559 L897.253537,686.098396 C896.915488,685.760731 896.915488,685.208373 897.253537,684.870998 L897.8717,684.253248 C898.209749,683.915584 898.762735,683.915584 899.100784,684.253248 L909.746572,694.886066 C910.084331,695.223731 910.084621,695.775799 909.746572,696.113464 L909.128119,696.731213 C909.121882,696.737443 909.115572,696.743558 909.109191,696.749558 Z" id="dropdown-arrow" transform="translate(903.500000, 695.500000) rotate(90.000000) translate(-903.500000, -695.500000) "></path>
    </g>
</svg>