<?xml version="1.0" encoding="UTF-8"?>
<svg width="418px" height="418px" viewBox="0 0 418 418" version="1.1" xmlns="http://www.w3.org/2000/svg" xmlns:xlink="http://www.w3.org/1999/xlink">
    <defs>
        <filter x="-5.7%" y="-5.7%" width="111.4%" height="111.4%" filterUnits="objectBoundingBox" id="filter-1">
            <feOffset dx="4" dy="4" in="SourceAlpha" result="shadowOffsetOuter1"></feOffset>
            <feGaussianBlur stdDeviation="4" in="shadowOffsetOuter1" result="shadowBlurOuter1"></feGaussianBlur>
            <feColorMatrix values="0 0 0 0 0   0 0 0 0 0   0 0 0 0 0  0 0 0 0.5 0" type="matrix" in="shadowBlurOuter1" result="shadowMatrixOuter1"></feColorMatrix>
            <feMerge>
                <feMergeNode in="shadowMatrixOuter1"></feMergeNode>
                <feMergeNode in="SourceGraphic"></feMergeNode>
            </feMerge>
        </filter>
    </defs>
    <g id="Page-1" stroke="none" stroke-width="1" fill="none" fill-rule="evenodd">
        <g id="Artboard" transform="translate(-281.000000, -310.000000)" fill="#FFFFFF" fill-rule="nonzero">
            <g id="plus" filter="url(#filter-1)" transform="translate(285.000000, 314.000000)">
                <path d="M394,154.175 C388.669,148.845 382.194,146.181 374.583,146.181 L255.811,146.181 L255.811,27.406 C255.811,19.795 253.145,13.322 247.817,7.992 C242.488,2.666 236.02,0 228.398,0 L173.586,0 C165.974,0 159.502,2.663 154.172,7.993 C148.842,13.323 146.178,19.796 146.178,27.407 L146.178,146.182 L27.407,146.182 C19.796,146.182 13.323,148.846 7.993,154.176 C2.663,159.506 0,165.973 0,173.589 L0,228.408 C0,236.026 2.662,242.494 7.992,247.819 C13.322,253.151 19.795,255.813 27.406,255.813 L146.177,255.813 L146.177,374.59 C146.177,382.201 148.841,388.679 154.171,394.007 C159.501,399.332 165.973,401.994 173.585,401.994 L228.401,401.994 C236.018,401.994 242.487,399.332 247.818,394.007 C253.15,388.676 255.812,382.201 255.812,374.59 L255.812,255.813 L374.582,255.813 C382.2,255.813 388.671,253.151 393.999,247.819 C399.328,242.494 401.993,236.026 401.993,228.408 L401.993,173.589 C401.993,165.973 399.332,159.502 394,154.175 Z" id="Path"></path>
            </g>
        </g>
    </g>
</svg>